<?xml version="1.0" encoding="UTF-8"?>
<svg width="16px" height="16px" viewBox="0 0 16 16" version="1.1" xmlns="http://www.w3.org/2000/svg" xmlns:xlink="http://www.w3.org/1999/xlink">
    <!-- Generator: Sketch 48.2 (47327) - http://www.bohemiancoding.com/sketch -->
    <title>unfav_heart</title>
    <desc>Created with Sketch.</desc>
    <defs></defs>
    <g id="Page-1" stroke="#fff" stroke-width="1.5" fill="none" fill-rule="evenodd">
        <g id="heart_on" stroke="#ccc">
            <path d="M13.7600966,3.22049689 C12.9993291,2.51614907 12.1298806,2.21428571 11.0430699,2.21428571 C9.95625922,2.21428571 8.86944854,3.01925466 8,3.8242236 C7.13055146,3.01925466 6.04374078,2.21428571 4.9569301,2.21428571 C3.87011942,2.21428571 3.00067087,2.51614907 2.23990339,3.22049689 C0.609687374,4.72981366 0.609687374,7.04409938 2.23990339,8.55341615 C2.67462767,8.95590062 7.13055146,13.4838509 7.13055146,13.4838509 C7.34791359,13.6850932 7.6739568,13.7857143 8,13.7857143 C8.3260432,13.7857143 8.65208641,13.6850932 8.86944854,13.4838509 C8.86944854,13.4838509 13.3253723,8.95590062 13.7600966,8.55341615 C15.3903126,7.04409938 15.3903126,4.72981366 13.7600966,3.22049689 Z" id="Shape"></path>
        </g>
    </g>
</svg>